<svg width="56" height="48" viewBox="0 0 56 48" fill="none" xmlns="http://www.w3.org/2000/svg">
<g clip-path="url(#clip0)" filter="url(#filter0_d)">
<path d="M47.1506 22.2819C46.5751 22.2861 46.005 22.3959 45.4678 22.6061L39.7275 17.8214C39.8687 17.2998 39.9692 16.7587 39.9692 16.1883C39.9692 12.81 37.3026 10.0947 33.9848 10.0947C30.667 10.0947 28.0003 12.81 28.0003 16.1883C28.0003 17.1536 28.2397 18.053 28.6275 18.8622L21.664 27.2421C21.3852 27.189 21.1025 27.1605 20.819 27.1568C20.3905 27.1568 19.9859 27.23 19.5934 27.3372L13.4581 21.09C13.5658 20.6927 13.6376 20.2808 13.6376 19.8445C13.6376 17.1438 11.5024 14.9696 8.85006 14.9696C6.19775 14.9696 4.0625 17.1438 4.0625 19.8445C4.0625 22.5452 6.19775 24.7194 8.85006 24.7194C9.27855 24.7194 9.6831 24.6463 10.0757 24.539L16.2109 30.7862C16.0959 31.1911 16.0355 31.6102 16.0314 32.0317C16.0314 34.7324 18.1667 36.9066 20.819 36.9066C23.4713 36.9066 25.6065 34.7324 25.6065 32.0317C25.6065 31.454 25.4916 30.9105 25.3121 30.3962L32.2852 22.0065C32.8286 22.1674 33.3911 22.2819 33.9848 22.2819C34.9295 22.2766 35.8593 22.0418 36.6969 21.597L42.4396 26.3817C42.3946 26.6377 42.369 26.8968 42.363 27.1568C42.363 29.8575 44.4983 32.0317 47.1506 32.0317C49.8029 32.0317 51.9381 29.8575 51.9381 27.1568C51.9381 24.4561 49.8029 22.2819 47.1506 22.2819Z" fill="#0D5C63"/>
</g>
<defs>
<filter id="filter0_d" x="-0.5" y="0" width="56" height="56" filterUnits="userSpaceOnUse" color-interpolation-filters="sRGB">
<feFlood flood-opacity="0" result="BackgroundImageFix"/>
<feColorMatrix in="SourceAlpha" type="matrix" values="0 0 0 0 0 0 0 0 0 0 0 0 0 0 0 0 0 0 127 0" result="hardAlpha"/>
<feOffset dy="4"/>
<feGaussianBlur stdDeviation="2"/>
<feComposite in2="hardAlpha" operator="out"/>
<feColorMatrix type="matrix" values="0 0 0 0 0 0 0 0 0 0 0 0 0 0 0 0 0 0 0.25 0"/>
<feBlend mode="normal" in2="BackgroundImageFix" result="effect1_dropShadow"/>
<feBlend mode="normal" in="SourceGraphic" in2="effect1_dropShadow" result="shape"/>
</filter>
<clipPath id="clip0">
<rect width="48" height="48" fill="white" transform="translate(3.5)"/>
</clipPath>
</defs>
</svg>
